PathFileType	4	(X/Y/Z)	RBDS08\RBDS08runT35.trc
DataRate	CameraRate	NumFrames	NumMarkers	Units	OrigDataRate	OrigDataStartFrame	OrigNumFrames
150.000000	150.000000	5	33	mm	150.000000	1125	4500
Frame#	Time	L.ASIS			L.Heel.Bottom			L.Heel.Lateral			L.Heel.Top			L.Iliac.Crest			L.MT1			L.MT5			L.PSIS			L.Shank.Bottom.Lateral			L.Shank.Bottom.Medial			L.Shank.Top.Lateral			L.Shank.Top.Medial			L.Thigh.Bottom.Lateral			L.Thigh.Bottom.Medial			L.Thigh.Top.Lateral			L.Thigh.Top.Medial			R.ASIS			R.ASY			R.Heel.Bottom			R.Heel.Lateral			R.Heel.Top			R.Iliac.Crest			R.MT1			R.MT5			R.PSIS			R.Shank.Bottom.Lateral			R.Shank.Bottom.Medial			R.Shank.Top.Lateral			R.Shank.Top.Medial			R.Thigh.Bottom.Lateral			R.Thigh.Bottom.Medial			R.Thigh.Top.Lateral			R.Thigh.Top.Medial			
		X1	Y1	Z1	X2	Y2	Z2	X3	Y3	Z3	X4	Y4	Z4	X5	Y5	Z5	X6	Y6	Z6	X7	Y7	Z7	X8	Y8	Z8	X9	Y9	Z9	X10	Y10	Z10	X11	Y11	Z11	X12	Y12	Z12	X13	Y13	Z13	X14	Y14	Z14	X15	Y15	Z15	X16	Y16	Z16	X17	Y17	Z17	X18	Y18	Z18	X19	Y19	Z19	X20	Y20	Z20	X21	Y21	Z21	X22	Y22	Z22	X23	Y23	Z23	X24	Y24	Z24	X25	Y25	Z25	X26	Y26	Z26	X27	Y27	Z27	X28	Y28	Z28	X29	Y29	Z29	X30	Y30	Z30	X31	Y31	Z31	X32	Y32	Z32	X33	Y33	Z33	

1126	7.500000000000001	2074.009026002622	1021.643803409549	928.9745943200952	1366.30016423078	360.2344947819518	1009.238056682265	1384.876255985676	331.7599748620588	963.3226710379256	1417.412813083879	362.9338963149376	1004.647943553387	2039.288708706099	1104.042543597245	903.9752549759581	1461.331502349155	153.4066578230942	1048.072467878366	1414.956572007878	174.5562563102178	949.4880180736741	1907.922550602047	1075.779884263886	991.982758757037	1499.207582392614	353.6151457719934	947.4573804606256	1478.313890479185	383.4741766895906	984.0290475596745	1556.028994135997	409.1695034082737	931.514208990281	1539.553241223931	440.3531952500465	971.6170816111721	1851.122316612215	677.2901524760049	889.4177526435851	1796.131733193231	700.2366188720318	931.9532629065819	1880.565963455469	783.1368400148505	874.1961493598191	1831.220765158595	804.1127821065211	919.6657884307426	2070.638830469893	1032.184184705424	1151.998583610319	-475402421.9019941	116385029.9435477	-248388816.5885521	2110.627747908625	108.2736763036881	1066.410457460387	2128.091101549933	130.3826272612682	1110.579330815804	2113.959100540372	158.2716273056422	1064.108934363996	2012.621071758737	1104.662412471744	1193.551476175907	2334.141707138165	159.1472853616663	1058.367147188924	2286.890544241051	151.1957614470114	1156.960972260604	1908.114547601572	1077.011569367008	1095.498992637832	2163.066136018445	279.6678354796455	1123.168994714647	2140.702621470643	286.3642028603707	1073.349204518191	2163.364821629417	360.6299920132627	1131.157772171778	2145.517620038897	365.9358975765983	1080.8574410451	2202.55872686266	693.5196702782737	1176.635958243163	2150.946082291451	655.4113357989174	1140.693938766423	2126.878987913115	770.6513160849545	1201.366183822015	2078.741056383756	733.944646769871	1168.754190533268	
1127	7.506666666666667	2074.360551997745	1022.049609613571	928.4789185988503	1362.621060559391	374.6352152003963	1006.706364734692	1381.645004577538	345.9494405492653	961.1485295522325	1413.79059771181	376.2249190256951	1003.370958044465	2038.099098893628	1104.621524846306	903.8575512508702	1452.5309034998	166.2623918897469	1047.523616858379	1408.98001672715	188.5647068365582	947.8561832303657	1907.953527104848	1075.125919210358	991.9709498155758	1497.501617996462	364.020659796949	947.2938205315196	1477.465643490475	395.088754751425	983.3715396316748	1557.065591531039	416.9159591829891	931.776198574035	1541.353429969698	449.1541911757288	971.3366782568976	1857.267088703312	673.4637063783608	890.7084833641757	1801.76243754325	695.8340700346278	932.8412103147857	1885.018618269255	779.57938079362	874.6503968159316	1834.936738744836	800.2460352472687	919.478396901942	2070.560424818038	1032.157719423406	1151.663946809442	-477153456.9411007	116814028.688338	-249303410.0711207	2128.921304544921	94.52580530503315	1066.795809530651	2146.581697613383	117.1826500148458	1110.588661421064	2129.405780910015	144.6801052664065	1065.133984177708	2012.052043953544	1103.646981049326	1193.618984649941	2348.455468144273	157.5238232887887	1052.059776528583	2305.138564348455	146.2338156523638	1151.896000329752	1908.364714313463	1075.829820934477	1095.519864678291	2174.426211042534	268.7427047370582	1123.800179514809	2150.149172646412	274.8250620018565	1074.839431182984	2171.104470378148	349.4325539338888	1132.804561150284	2151.299672935554	354.3964435792268	1083.325216047645	2197.304981429866	686.8205348585783	1177.025422303806	2145.307450261378	650.3170580837148	1140.02626759133	2123.226493510823	765.5080881995393	1201.433599347717	2074.61145200167	730.2493137550896	1167.823222685478	
1128	7.513333333333334	2074.678644664342	1021.984242926074	927.8970087563096	1360.494268591375	389.302343814421	1003.957730702675	1379.949610126395	360.276447231394	958.7910667759435	1411.683491177988	389.6393677604024	1001.971573036063	2036.582664948114	1104.773386725961	903.59720654999	1444.453039817721	179.3051755536403	1047.056271429503	1404.01507118473	202.7138888299745	946.2096969896255	1907.994991025133	1073.870026649469	991.7664050792931	1496.990734345113	374.3932988498365	947.0695888811942	1477.92505969628	406.5650725596761	982.7810604528604	1559.224347611599	424.4756826926775	932.0811535873437	1544.373722917973	457.6743065188664	971.1769265680266	1864.006104678386	668.813808948984	891.9147961476964	1807.93652388323	690.494471932011	933.6299230933422	1889.863628062038	775.2124686167477	875.0298757173499	1839.00320559885	795.4699932674514	919.199637580419	2070.505508293581	1031.962750167972	1151.261328375994	-478908786.3318539	117244080.3452672	-250220245.8718829	2145.360919248864	81.65743191115814	1067.738160890324	2163.554891026987	104.7978071321667	1111.031475722636	2143.200211092736	131.8668168122279	1066.742682771944	2011.315554079385	1102.387186348322	1193.435654653669	2360.411639956164	155.8470741867896	1045.172393798083	2321.722327749506	141.4944672063934	1146.338011428982	1908.579840763042	1074.18881536574	1095.356474109189	2184.729779063722	258.2200601906066	1124.730907682578	2158.283191956132	263.6074238760413	1076.826790056622	2178.042609376946	338.4858668400944	1134.779771793067	2156.030018478763	343.0350273141506	1086.273117350577	2191.628381934999	679.7388549629044	1177.289796884912	2139.235218530646	644.8639117374873	1139.328826019795	2119.334853571274	760.0695626719859	1201.347864841498	2070.195391561567	726.2712794676473	1166.869993724465	
1129	7.52	2075.002806038211	1021.39724503336	927.2712834682288	1360.203888311931	404.2207366519503	1001.177534037537	1379.9414450112	374.7050079579956	956.3887554114988	1411.363055036265	403.1028433959104	1000.532342382586	2034.862528779783	1104.398603941512	903.1921283347754	1437.236528792606	192.4439526645282	1046.591584478714	1400.021727201143	216.9371307869554	944.5804856619305	1908.092197671746	1071.987975496312	991.3435175394773	1497.763827127377	384.6559656441235	946.7681531516586	1479.799135025921	417.7794886991808	982.2816509695814	1562.544602207957	431.796798761266	932.4079444637489	1548.675909872011	465.8161544379059	971.158341198179	1871.219110339579	663.4603511219801	893.0170892967353	1814.579862238919	684.3421392729384	934.3563645429767	1895.021667651468	770.1442782684999	875.3514226656175	1843.395803104448	789.8817371318353	918.9072711408671	2070.497003557532	1031.560894273033	1150.833674038655	-480668415.3336152	117675186.2048583	-251139326.7362237	2159.639287192339	69.74101350711953	1069.104848242977	2178.671958824844	93.29240830691784	1111.784454978913	2155.152118760218	119.9272719763786	1068.755211716327	2010.472219624245	1100.923278203477	1193.02301848184	2369.992008318132	153.8106140760084	1038.001435359439	2336.349302384524	136.7734578927078	1140.492315789137	1908.784118975927	1072.104032948195	1094.993718464868	2193.784076493551	248.0778976420218	1125.835288712869	2165.033024492508	252.6922550299819	1079.129246040164	2184.019901415104	327.8167008582683	1136.924317034133	2159.67716060591	331.8729448934182	1089.48761638506	2185.699954846755	672.4408273728124	1177.444235218411	2132.880021021177	639.15063318416	1138.713984677657	2115.359402690852	754.4815428281813	1201.13183661782	2065.639905921175	722.1053132684376	1166.001912932439	
1130	7.526666666666667	2075.362716917918	1020.245442742307	926.6405929198634	1361.945150252292	419.3192591649531	998.5508445329341	1381.712908141891	389.174780883662	954.0829200935352	1413.009584016004	416.5150448560848	999.1485453651298	2033.068583082219	1103.401758462228	902.6475726138653	1431.041260426061	205.5946151018742	1046.052069442795	1397.000894779575	231.1886078603603	942.9883138335246	1908.274501426342	1069.460365463799	990.6957296632496	1499.883084374494	394.7277611240809	946.3892017043659	1483.156446635454	428.6231179342839	981.8907656103734	1567.049826557429	438.8192077482797	932.7353022633976	1554.297683086795	473.4895224420679	971.2866125476222	1878.790110070286	657.5141741156095	894.0006071846024	1821.622406147939	677.4912655430501	935.0613091315746	1900.411544241958	764.4778725382741	875.6345631537462	1848.083220977745	783.5734096546915	918.677667526594	2070.551313904397	1030.88983771602	1150.419376402601	-482432349.2057462	118107347.5576342	-252060655.4095282	2171.424516251276	58.88357024565228	1070.733286758495	2191.555469803602	82.74702175234533	1112.705412080129	2165.058830695518	108.9886327203365	1070.954559139987	2009.589580014567	1099.265493474702	1192.423500236246	2377.199362307912	151.0880421368172	1030.880829057843	2348.703397322048	131.8312520632718	1134.608639134791	1908.989074040831	1069.5835705513	1094.433574750757	2201.378707448511	238.2832756971816	1126.971189863832	2170.33057224899	242.0730130301866	1081.528899091039	2188.864267970482	317.4435109383664	1139.063679449211	2162.210210571442	320.944513160405	1092.728000814963	2179.703084260736	665.0741560214615	1177.527020216572	2126.409429401942	633.2653141641724	1138.291813965173	2111.450064336889	748.860239687378	1200.835494911277	2061.093515171533	717.8230189811343	1165.325833104568	
